<svg width="307" height="148" viewBox="0 0 307 148" fill="none" xmlns="http://www.w3.org/2000/svg">
<path d="M145.245 93.3477C145.21 93.3301 145.175 93.3067 145.134 93.2833C145.157 93.2424 145.192 93.2073 145.227 93.1722C145.227 93.2307 145.239 93.2892 145.245 93.3477Z" fill="#2994DD"/>
<path d="M162.431 91.276C162.431 91.276 162.419 91.2876 162.413 91.2876C162.413 91.2585 162.413 91.2236 162.413 91.1945C162.413 91.2236 162.431 91.2527 162.431 91.2818V91.276Z" fill="#2994DD"/>
<path d="M180.348 113.204C180.302 113.295 180.256 113.38 180.217 113.472C180.177 113.38 180.142 113.284 180.103 113.192C180.154 112.97 180.194 112.754 180.239 112.531C180.513 112.662 180.479 112.919 180.348 113.209V113.204Z" fill="#36A5EF"/>
<path d="M145.245 93.3477C145.21 93.3301 145.175 93.3067 145.134 93.2833C145.157 93.2424 145.192 93.2073 145.227 93.1722C145.227 93.2307 145.239 93.2892 145.245 93.3477Z" fill="#2089BC"/>
<path d="M162.431 91.276C162.431 91.276 162.419 91.2876 162.413 91.2876C162.413 91.2585 162.413 91.2236 162.413 91.1945C162.413 91.2236 162.431 91.2527 162.431 91.2818V91.276Z" fill="#2089BC"/>
<path d="M180.347 113.204C180.302 113.295 180.256 113.381 180.216 113.472C180.176 113.381 180.142 113.284 180.102 113.192C180.005 112.947 179.897 112.691 179.8 112.44C180 112.452 180.142 112.48 180.239 112.531C180.513 112.662 180.478 112.919 180.347 113.21V113.204Z" fill="#2089BC"/>
<path d="M251.904 77.899C250.918 76.6167 250.103 75.1692 249.43 73.6874C247.561 69.5329 245.817 65.31 244.01 61.1213C240.517 53.0003 236.893 44.9477 230.743 38.3826C227.267 34.6726 223.335 31.692 218.12 30.8999C209.093 29.5435 202.454 33.5214 197.086 40.3316C194.817 43.2153 193.108 46.4295 191.711 49.7975C186.132 63.2584 183.949 77.5627 181.305 91.7587C180.023 98.6544 179.1 105.607 177.447 112.434C177.646 112.446 177.789 112.474 177.886 112.526C178.159 112.657 178.125 112.913 177.994 113.204C177.949 113.295 177.903 113.38 177.863 113.472C177.823 113.38 177.789 113.284 177.749 113.192C177.652 112.947 177.544 112.691 177.447 112.44C176.495 117.495 175.572 122.573 173.264 127.223C171.708 130.358 169.377 130.5 167.132 127.804C165.964 126.408 165.542 124.624 164.624 123.103C164.265 121.439 163.855 119.786 163.547 118.111C162.066 109.95 161.769 101.663 160.971 93.4228C159.324 76.2919 158.025 59.1153 155.637 42.0641C154.344 32.8546 152.953 23.6508 148.605 15.2335C146.981 11.8826 145.009 8.73674 142.017 6.45717C133.446 -0.0738014 123.746 -1.32187 113.579 1.24265C104.313 3.57921 99.0924 10.5775 95.0633 18.67C94.3452 20.2087 93.5531 21.7132 92.9262 23.2975C88.0593 35.7098 84.8166 48.6293 81.0895 61.4062C79.0607 68.376 77.6132 75.5339 74.5642 82.1674C73.6011 84.2704 72.6893 87.04 69.988 87.1198C67.4748 87.1939 66.3008 84.6522 65.0983 82.743C63.1835 79.6941 61.8784 76.326 60.448 73.0321C57.8892 67.1337 54.977 61.429 50.1329 57.0466C44.9298 52.345 38.9402 49.0396 31.6855 50.0768C19.7348 51.7865 10.2689 58.249 2.15934 66.8259C-0.490661 69.6298 -0.524854 73.0549 1.09934 76.4628C2.64375 79.7169 5.23676 81.2841 8.90117 81.4323C12.8163 81.5862 15.4777 79.2952 18.3215 77.2265C21.302 75.0609 23.7925 72.2513 27.1776 70.6214C31.6912 68.4444 35.5494 69.2594 38.8377 73.0663C41.4478 76.0867 43.0891 79.6542 44.5993 83.2787C47.4202 90.0206 51.267 96.0443 56.6183 101.071C62.6421 106.741 71.5438 108.063 78.9296 104.279C86.0134 100.643 90.2876 94.5113 93.4448 87.4959C98.0951 77.1752 100.415 66.1136 103.389 55.2628C106.381 44.3437 108.832 33.2364 114.234 23.1265C115.369 21.85 116.377 20.4366 117.654 19.3311C121.427 16.0599 125.473 16.5329 128.408 20.5449C129.354 21.8386 130.083 23.2918 130.915 24.6709C131.269 25.7423 131.628 26.8137 131.97 27.8908C136.66 42.6967 138.455 58.0439 140.256 73.3569C142.011 88.2425 142.678 103.253 144.826 118.099C146.035 126.408 148.006 134.467 153.654 141.089C155.768 143.841 158.578 145.534 161.866 146.537C165.001 147.489 168.203 146.924 171.378 147.01C179.333 147.221 184.964 143.454 188.765 136.655C190.384 134.21 191.387 131.509 192.105 128.682C194.977 117.393 196.994 105.926 199.097 94.4714C200.978 84.1735 202.574 73.8185 205.058 63.6402C206.118 59.2805 207.321 54.8981 210.489 51.4673C212.74 49.0339 214.376 49.0339 216.73 51.3248C218.764 53.2967 220.012 55.7985 221.295 58.2718C223.665 62.831 225.358 67.6808 227.301 72.4223C228.857 76.9871 230.498 81.5178 232.886 85.7407C235.166 87.3535 236.767 89.8154 239.884 90.3682C243.948 91.0806 247.846 91.092 251.522 89.0917C255.032 87.1882 258.229 84.8061 261.255 82.1959C257.249 82.6974 254.251 80.9137 251.915 77.8876L251.904 77.899ZM104.358 45.2726C104.358 45.2726 104.358 45.2555 104.358 45.2441C104.375 45.2441 104.381 45.2441 104.398 45.2555C104.381 45.2555 104.37 45.2669 104.353 45.2726H104.358ZM142.849 90.2257C142.849 90.2257 142.832 90.2257 142.826 90.2257C142.826 90.2143 142.809 90.2029 142.809 90.1915C142.826 90.2029 142.837 90.2086 142.855 90.22L142.849 90.2257ZM142.775 93.2804C142.798 93.2405 142.832 93.2063 142.866 93.1721C142.866 93.2291 142.877 93.2861 142.883 93.343C142.849 93.326 142.815 93.3032 142.775 93.2804ZM142.832 90.807V90.7101C142.877 90.7101 142.923 90.7101 142.963 90.7101C142.929 90.7386 142.883 90.7728 142.832 90.807ZM160.06 91.2914C160.06 91.2629 160.06 91.2288 160.06 91.2003C160.06 91.2288 160.077 91.2572 160.077 91.2857C160.077 91.2857 160.065 91.2971 160.06 91.2971V91.2914Z" fill="#2994DD"/>
<path d="M306.129 77.3461C305.616 80.925 301.951 83.8144 297.335 84.276C296.686 84.3387 296.013 84.4412 295.375 84.3444C288.434 83.3072 282.957 86.1965 278.084 90.7272C275.013 93.8103 271.65 96.5458 267.843 98.6715C258.571 103.863 244.033 103.698 236.072 91.2401C234.932 89.4563 233.49 87.8435 232.875 85.7577C235.154 87.3705 236.756 89.8324 239.873 90.3852C243.936 91.0976 247.834 91.109 251.51 89.1087C255.021 87.2052 258.218 84.8231 261.244 82.213C262.23 81.5747 263.216 80.9364 264.202 80.2981C271.388 74.149 278.848 68.5127 288.502 66.8088C292.491 66.1021 296.327 66.5295 300.014 68.1651C304.015 69.9375 306.63 73.9096 306.129 77.3461Z" fill="#DE4228"/>
<path d="M145.245 93.3477C145.21 93.3301 145.175 93.3067 145.134 93.2833C145.157 93.2424 145.192 93.2073 145.227 93.1722C145.227 93.2307 145.239 93.2892 145.245 93.3477Z" fill="#142145"/>
<path d="M162.431 91.276C162.431 91.276 162.419 91.2876 162.413 91.2876C162.413 91.2585 162.413 91.2236 162.413 91.1945C162.413 91.2236 162.431 91.2527 162.431 91.2818V91.276Z" fill="#142047"/>
<path d="M180.347 113.204C180.302 113.295 180.256 113.381 180.216 113.472C180.176 113.381 180.142 113.284 180.102 113.192C180.005 112.947 179.897 112.691 179.8 112.44C180 112.452 180.142 112.48 180.239 112.531C180.513 112.662 180.478 112.919 180.347 113.21V113.204Z" fill="#132548"/>
</svg>
